<?xml version="1.0" encoding="UTF-8"?>
<svg xmlns="http://www.w3.org/2000/svg" xmlns:xlink="http://www.w3.org/1999/xlink" width="160pt" height="160pt" viewBox="0 0 160 160" version="1.1">
<g id="surface1">
<path style=" stroke:none;fill-rule:nonzero;fill:rgb(100%,60%,0%);fill-opacity:1;" d="M 6.398438 0 L 153.601562 0 C 157.132812 0 160 2.867188 160 6.398438 L 160 153.601562 C 160 157.132812 157.132812 160 153.601562 160 L 6.398438 160 C 2.867188 160 0 157.132812 0 153.601562 L 0 6.398438 C 0 2.867188 2.867188 0 6.398438 0 Z M 6.398438 0 "/>
<path style=" stroke:none;fill-rule:nonzero;fill:rgb(100%,69.411765%,23.137255%);fill-opacity:1;" d="M 6.398438 0 L 73.601562 0 C 77.132812 0 80 2.867188 80 6.398438 L 80 73.601562 C 80 77.132812 77.132812 80 73.601562 80 L 6.398438 80 C 2.867188 80 0 77.132812 0 73.601562 L 0 6.398438 C 0 2.867188 2.867188 0 6.398438 0 Z M 6.398438 0 "/>
<path style=" stroke:none;fill-rule:nonzero;fill:rgb(87.058824%,52.156863%,0%);fill-opacity:1;" d="M 86.398438 80 L 153.601562 80 C 157.132812 80 160 82.867188 160 86.398438 L 160 153.601562 C 160 157.132812 157.132812 160 153.601562 160 L 86.398438 160 C 82.867188 160 80 157.132812 80 153.601562 L 80 86.398438 C 80 82.867188 82.867188 80 86.398438 80 Z M 86.398438 80 "/>
<path style=" stroke:none;fill-rule:nonzero;fill:rgb(100%,60%,0%);fill-opacity:1;" d="M 109.441406 29.441406 C 109.441406 45.699219 96.257812 58.878906 80 58.878906 C 63.742188 58.878906 50.558594 45.699219 50.558594 29.441406 C 50.558594 13.179688 63.742188 0 80 0 C 96.257812 0 109.441406 13.179688 109.441406 29.441406 Z M 109.441406 29.441406 "/>
<path style=" stroke:none;fill-rule:nonzero;fill:rgb(100%,60%,0%);fill-opacity:1;" d="M 145.28125 44.160156 C 145.28125 60.417969 132.097656 73.601562 115.839844 73.601562 C 99.582031 73.601562 86.398438 60.417969 86.398438 44.160156 C 86.398438 27.902344 99.582031 14.71875 115.839844 14.71875 C 132.097656 14.71875 145.28125 27.902344 145.28125 44.160156 Z M 145.28125 44.160156 "/>
<path style=" stroke:none;fill-rule:nonzero;fill:rgb(100%,60%,0%);fill-opacity:1;" d="M 160 80 C 160 96.257812 146.820312 109.441406 130.558594 109.441406 C 114.300781 109.441406 101.121094 96.257812 101.121094 80 C 101.121094 63.742188 114.300781 50.558594 130.558594 50.558594 C 146.820312 50.558594 160 63.742188 160 80 Z M 160 80 "/>
<path style=" stroke:none;fill-rule:nonzero;fill:rgb(100%,60%,0%);fill-opacity:1;" d="M 145.28125 115.839844 C 145.28125 132.097656 132.097656 145.28125 115.839844 145.28125 C 99.582031 145.28125 86.398438 132.097656 86.398438 115.839844 C 86.398438 99.582031 99.582031 86.398438 115.839844 86.398438 C 132.097656 86.398438 145.28125 99.582031 145.28125 115.839844 Z M 145.28125 115.839844 "/>
<path style=" stroke:none;fill-rule:nonzero;fill:rgb(100%,60%,0%);fill-opacity:1;" d="M 109.441406 130.558594 C 109.441406 146.820312 96.257812 160 80 160 C 63.742188 160 50.558594 146.820312 50.558594 130.558594 C 50.558594 114.300781 63.742188 101.121094 80 101.121094 C 96.257812 101.121094 109.441406 114.300781 109.441406 130.558594 Z M 109.441406 130.558594 "/>
<path style=" stroke:none;fill-rule:nonzero;fill:rgb(100%,60%,0%);fill-opacity:1;" d="M 73.601562 115.839844 C 73.601562 132.097656 60.417969 145.28125 44.160156 145.28125 C 27.902344 145.28125 14.71875 132.097656 14.71875 115.839844 C 14.71875 99.582031 27.902344 86.398438 44.160156 86.398438 C 60.417969 86.398438 73.601562 99.582031 73.601562 115.839844 Z M 73.601562 115.839844 "/>
<path style=" stroke:none;fill-rule:nonzero;fill:rgb(100%,60%,0%);fill-opacity:1;" d="M 58.878906 80 C 58.878906 96.257812 45.699219 109.441406 29.441406 109.441406 C 13.179688 109.441406 0 96.257812 0 80 C 0 63.742188 13.179688 50.558594 29.441406 50.558594 C 45.699219 50.558594 58.878906 63.742188 58.878906 80 Z M 58.878906 80 "/>
<path style=" stroke:none;fill-rule:nonzero;fill:rgb(100%,60%,0%);fill-opacity:1;" d="M 73.601562 44.160156 C 73.601562 60.417969 60.417969 73.601562 44.160156 73.601562 C 27.902344 73.601562 14.71875 60.417969 14.71875 44.160156 C 14.71875 27.902344 27.902344 14.71875 44.160156 14.71875 C 60.417969 14.71875 73.601562 27.902344 73.601562 44.160156 Z M 73.601562 44.160156 "/>
<path style=" stroke:none;fill-rule:nonzero;fill:rgb(0%,0%,0%);fill-opacity:1;" d="M 100.9375 29.414062 C 100.9375 17.851562 91.5625 8.476562 79.976562 8.476562 C 68.402344 8.476562 59.023438 17.851562 59.023438 29.414062 C 50.863281 21.238281 37.59375 21.238281 29.429688 29.414062 C 21.238281 37.609375 21.238281 50.867188 29.429688 59.054688 C 17.855469 59.054688 8.464844 68.429688 8.464844 79.992188 C 8.464844 91.558594 17.855469 100.945312 29.429688 100.945312 C 21.238281 109.125 21.238281 122.378906 29.429688 130.570312 C 37.59375 138.738281 50.863281 138.738281 59.023438 130.570312 C 59.023438 142.136719 68.398438 151.503906 79.976562 151.503906 C 91.5625 151.503906 100.9375 142.136719 100.9375 130.570312 C 109.125 138.738281 122.402344 138.738281 130.558594 130.570312 C 138.71875 122.378906 138.71875 109.113281 130.558594 100.945312 C 142.105469 100.945312 151.488281 91.558594 151.488281 79.992188 C 151.488281 68.425781 142.105469 59.054688 130.558594 59.054688 C 138.71875 50.863281 138.71875 37.605469 130.558594 29.414062 C 122.402344 21.238281 109.128906 21.238281 100.9375 29.414062 Z M 100.9375 29.414062 "/>
<path style=" stroke:none;fill-rule:nonzero;fill:rgb(100%,100%,100%);fill-opacity:1;" d="M 88.003906 37.449219 L 88.003906 60.628906 L 104.414062 44.222656 C 104.414062 41.324219 105.523438 38.433594 107.722656 36.214844 C 112.167969 31.78125 119.363281 31.78125 123.761719 36.214844 C 128.195312 40.640625 128.195312 47.824219 123.761719 52.257812 C 121.558594 54.460938 118.648438 55.574219 115.734375 55.574219 L 99.363281 71.972656 L 122.542969 71.972656 C 124.609375 69.921875 127.429688 68.648438 130.5625 68.648438 C 136.800781 68.648438 141.886719 73.734375 141.886719 79.988281 C 141.886719 86.238281 136.800781 91.328125 130.5625 91.328125 C 127.429688 91.328125 124.609375 90.054688 122.542969 88.015625 L 99.359375 88.015625 L 115.726562 104.40625 C 118.644531 104.40625 121.554688 105.515625 123.75 107.742188 C 128.1875 112.15625 128.1875 119.34375 123.75 123.757812 C 119.351562 128.195312 112.167969 128.195312 107.710938 123.757812 C 105.515625 121.5625 104.40625 118.652344 104.40625 115.753906 L 88 99.351562 L 88 122.546875 C 90.035156 124.589844 91.335938 127.433594 91.335938 130.570312 C 91.335938 136.820312 86.25 141.894531 79.976562 141.894531 C 73.707031 141.894531 68.628906 136.824219 68.628906 130.570312 C 68.628906 127.433594 69.925781 124.597656 71.957031 122.546875 L 71.957031 99.351562 L 55.582031 115.753906 C 55.582031 118.652344 54.453125 121.558594 52.246094 123.757812 C 47.816406 128.195312 40.644531 128.195312 36.207031 123.757812 C 31.769531 119.335938 31.769531 112.152344 36.207031 107.738281 C 38.410156 105.515625 41.351562 104.402344 44.226562 104.402344 L 60.636719 88.015625 L 37.460938 88.015625 C 35.398438 90.054688 32.546875 91.328125 29.4375 91.328125 C 23.171875 91.328125 18.085938 86.242188 18.085938 79.988281 C 18.085938 73.734375 23.167969 68.648438 29.4375 68.648438 C 32.542969 68.648438 35.398438 69.921875 37.460938 71.972656 L 60.644531 71.972656 L 44.234375 55.578125 C 41.359375 55.578125 38.421875 54.460938 36.214844 52.265625 C 31.773438 47.828125 31.773438 40.648438 36.214844 36.222656 C 40.652344 31.789062 47.824219 31.789062 52.257812 36.222656 C 54.457031 38.4375 55.589844 41.332031 55.589844 44.230469 L 71.964844 60.632812 L 71.964844 37.453125 C 69.933594 35.390625 68.636719 32.566406 68.636719 29.414062 C 68.636719 23.160156 73.714844 18.089844 79.988281 18.089844 C 86.257812 18.089844 91.34375 23.15625 91.34375 29.414062 C 91.339844 32.570312 90.039062 35.390625 88.003906 37.449219 Z M 88.003906 37.449219 "/>
<path style=" stroke:none;fill-rule:nonzero;fill:rgb(0%,0%,0%);fill-opacity:1;" d="M 8.480469 80 L 151.488281 80 L 151.488281 144 C 151.488281 149.332031 148.820312 152 143.488281 152 L 16.480469 152 C 11.148438 152 8.480469 149.332031 8.480469 144 Z M 8.480469 80 "/>
<path style=" stroke:none;fill-rule:nonzero;fill:rgb(24.705882%,24.705882%,24.705882%);fill-opacity:1;" d="M 23.453125 86.738281 L 137.679688 86.738281 C 142.335938 86.738281 146.179688 90.554688 146.179688 95.242188 L 146.179688 123.898438 C 102.046875 118.453125 58.300781 110.898438 14.964844 111.605469 L 14.964844 95.242188 C 14.964844 90.554688 18.789062 86.738281 23.453125 86.738281 Z M 23.453125 86.738281 "/>
<path style="fill-rule:nonzero;fill:rgb(100%,100%,100%);fill-opacity:1;stroke-width:0.5035;stroke-linecap:butt;stroke-linejoin:miter;stroke:rgb(0%,0%,0%);stroke-opacity:1;stroke-miterlimit:4;" d="M 18.312988 72.927246 C 16.208496 70.820312 14.904785 67.897949 14.904785 64.672852 C 14.904785 58.22998 20.126953 53.00293 26.569824 53.00293 C 33.017578 53.00293 38.237305 58.227539 38.237305 64.672852 L 31.40625 64.672852 C 31.40625 61.999512 29.238281 59.836426 26.569824 59.836426 C 23.908691 59.836426 21.733398 61.999512 21.733398 64.672852 C 21.733398 66.013184 22.282715 67.209473 23.146973 68.093262 C 24.030762 68.967285 25.249023 69.499512 26.569824 69.499512 L 26.569824 69.511719 C 29.802246 69.511719 32.714844 70.820312 34.814453 72.927246 C 36.931152 75.039062 38.237305 77.961426 38.237305 81.174316 C 38.237305 87.629395 33.017578 92.854004 26.569824 92.854004 C 20.129395 92.854004 14.904785 87.631836 14.904785 81.174316 L 21.733398 81.174316 C 21.733398 83.85498 23.908691 86.010742 26.569824 86.010742 C 29.238281 86.010742 31.40625 83.85498 31.40625 81.174316 C 31.40625 79.846191 30.861816 78.647461 29.978027 77.768555 C 29.11377 76.887207 27.895508 76.350098 26.569824 76.350098 C 23.339844 76.350098 20.429688 75.036621 18.312988 72.927246 Z M 18.312988 72.927246 " transform="matrix(1.6,0,0,1.6,0,0)"/>
<path style="fill-rule:nonzero;fill:rgb(100%,100%,100%);fill-opacity:1;stroke-width:0.5035;stroke-linecap:butt;stroke-linejoin:miter;stroke:rgb(0%,0%,0%);stroke-opacity:1;stroke-miterlimit:4;" d="M 61.586914 53.005371 L 53.344727 92.854004 L 46.494141 92.854004 L 38.234863 53.005371 L 45.083008 53.005371 L 49.919434 76.342773 L 54.755859 53.005371 Z M 61.586914 53.005371 " transform="matrix(1.6,0,0,1.6,0,0)"/>
<path style="fill-rule:nonzero;fill:rgb(100%,100%,100%);fill-opacity:1;stroke-width:0.5035;stroke-linecap:butt;stroke-linejoin:miter;stroke:rgb(0%,0%,0%);stroke-opacity:1;stroke-miterlimit:4;" d="M 73.254395 69.51416 L 84.938965 69.51416 L 84.938965 81.176758 C 84.938965 87.629395 79.711914 92.854004 73.269043 92.854004 C 66.828613 92.854004 61.604004 87.629395 61.604004 81.176758 L 61.604004 64.675293 L 61.586914 64.675293 C 61.586914 58.22998 66.826172 53.000488 73.251953 53.000488 C 79.711914 53.000488 84.936523 58.225098 84.936523 64.675293 L 78.085938 64.675293 C 78.085938 62.001953 75.935059 59.838867 73.251953 59.838867 C 70.605469 59.838867 68.432617 62.001953 68.432617 64.675293 L 68.432617 81.176758 C 68.432617 83.852539 70.605469 86.013184 73.251953 86.013184 C 75.935059 86.013184 78.085938 83.852539 78.085938 81.186523 L 78.085938 76.347656 L 73.251953 76.347656 Z M 73.254395 69.51416 " transform="matrix(1.6,0,0,1.6,0,0)"/>
</g>
</svg>
